HIERARCHY
ROOT SpineBase
{
  OFFSET 0.000000 0.000000 0.000000
  CHANNELS 6 Xposition Yposition Zposition Zrotation Xrotation Yrotation
  JOINT SpineMid
  {
    OFFSET -0.000000 31.566815 0.000000
    CHANNELS 3 Zrotation Xrotation Yrotation
    JOINT SpineShoulder
    {
      OFFSET 0.254901 23.429857 -0.710674
      CHANNELS 3 Zrotation Xrotation Yrotation
      JOINT Neck
      {
        OFFSET 0.159050 7.757273 -0.538063
        CHANNELS 3 Zrotation Xrotation Yrotation
        JOINT Head
        {
          OFFSET 3.955195 14.463718 -0.840973
          CHANNELS 3 Zrotation Xrotation Yrotation
          End Site
          {
            OFFSET 0 0 0
          }
        }
      }
      JOINT ShoulderLeft
      {
        OFFSET -13.425326 -2.553975 -9.854828
        CHANNELS 3 Zrotation Xrotation Yrotation
        JOINT ElbowLeft
        {
          OFFSET -9.254099 -27.938301 -1.916335
          CHANNELS 3 Zrotation Xrotation Yrotation
          JOINT WristLeft
          {
            OFFSET -5.360052 -22.113014 -6.117878
            CHANNELS 3 Zrotation Xrotation Yrotation
            JOINT HandLeft
            {
              OFFSET -1.120167 -7.067283 -1.452753
              CHANNELS 3 Zrotation Xrotation Yrotation
              JOINT HandTipLeft
              {
                OFFSET -0.960157 -4.867868 -1.416883
                CHANNELS 3 Zrotation Xrotation Yrotation
                End Site
                {
                  OFFSET 0 0 0
                }
              }
              JOINT ThumbLeft
              {
                OFFSET -2.360642 1.327567 -1.669901
                CHANNELS 3 Zrotation Xrotation Yrotation
                End Site
                {
                  OFFSET 0 0 0
                }
              }
            }
          }
        }
      }
      JOINT ShoulderRight
      {
        OFFSET 16.713058 -4.757522 8.435943
        CHANNELS 3 Zrotation Xrotation Yrotation
        JOINT ElbowRight
        {
          OFFSET 3.092600 -29.609521 1.635914
          CHANNELS 3 Zrotation Xrotation Yrotation
          JOINT WristRight
          {
            OFFSET 3.312244 -21.887929 -7.725125
            CHANNELS 3 Zrotation Xrotation Yrotation
            JOINT HandRight
            {
              OFFSET -0.014840 -4.564779 -0.886132
              CHANNELS 3 Zrotation Xrotation Yrotation
              JOINT HandTipRight
              {
                OFFSET 0.252259 -6.766866 -2.415568
                CHANNELS 3 Zrotation Xrotation Yrotation
                End Site
                {
                  OFFSET 0 0 0
                }
              }
              JOINT ThumbRight
              {
                OFFSET 3.462141 0.108479 -0.696651
                CHANNELS 3 Zrotation Xrotation Yrotation
                End Site
                {
                  OFFSET 0 0 0
                }
              }
            }
          }
        }
      }
    }
  }
  JOINT HipLeft
  {
    OFFSET -5.552411 1.490248 -6.756267
    CHANNELS 3 Zrotation Xrotation Yrotation
    JOINT KneeLeft
    {
      OFFSET -11.544897 -32.350547 -6.205478
      CHANNELS 3 Zrotation Xrotation Yrotation
      JOINT AnkleLeft
      {
        OFFSET -10.475522 -38.754321 4.179689
        CHANNELS 3 Zrotation Xrotation Yrotation
        JOINT FootLeft
        {
          OFFSET -1.105904 -6.404352 -5.581603
          CHANNELS 3 Zrotation Xrotation Yrotation
          End Site
          {
            OFFSET 0 0 0
          }
        }
      }
    }
  }
  JOINT HipRight
  {
    OFFSET 7.233901 0.452380 -0.171398
    CHANNELS 3 Zrotation Xrotation Yrotation
    JOINT KneeRight
    {
      OFFSET 2.837028 -33.467482 0.625725
      CHANNELS 3 Zrotation Xrotation Yrotation
      JOINT AnkleRight
      {
        OFFSET -0.439995 -39.374584 7.764353
        CHANNELS 3 Zrotation Xrotation Yrotation
        JOINT FootRight
        {
          OFFSET 2.758410 -5.566799 -6.188838
          CHANNELS 3 Zrotation Xrotation Yrotation
          End Site
          {
            OFFSET 0 0 0
          }
        }
      }
    }
  }
}
MOTION
Frames: 10
Frame Time: 0.033333
-68.493200 76.065949 342.405468 -7.376627 -0.800113 -23.036934 0.221993 0.075635 22.774661 0.055153 -0.273095 -0.278423 -4.681420 -15.114178 2.626193 0.000000 0.000000 0.000000 0.540071 -1.827325 1.757031 12.724589 -1.406886 -2.397185 3.531720 -11.804521 2.272306 -16.013802 17.593366 4.009250 0.000000 0.000000 0.000000 0.000000 0.000000 0.000000 3.928753 -8.593322 -1.000744 -3.806856 0.922036 2.775610 -14.562199 19.265261 7.598901 14.001553 -17.179935 -1.466246 0.000000 0.000000 0.000000 0.000000 0.000000 0.000000 15.597510 3.848917 21.703993 -1.426583 3.565508 0.990477 7.763010 14.531896 -16.481604 0.000000 0.000000 0.000000 -3.319493 5.782165 23.931797 1.818449 -0.219982 -1.586020 -6.297900 -6.002930 15.153658 0.000000 0.000000 0.000000
-68.524489 76.033134 342.446385 -7.404452 -0.814240 -23.189652 0.255978 0.024061 22.922595 0.085296 -0.312045 -0.278092 -4.810514 -15.285784 2.665504 0.000000 0.000000 0.000000 0.539370 -1.797781 1.782162 12.551532 -1.310164 -2.393207 3.507312 -11.486689 2.161800 -15.446110 16.397557 3.864568 0.000000 0.000000 0.000000 0.000000 0.000000 0.000000 3.613586 -8.298476 -1.016097 -4.498205 1.687184 3.392603 -9.967518 16.148867 4.949172 11.533817 -15.766411 -1.507625 0.000000 0.000000 0.000000 0.000000 0.000000 0.000000 15.561250 4.010020 21.801486 -1.401093 3.264046 1.100343 5.406377 11.849746 -13.926101 0.000000 0.000000 0.000000 -3.324697 5.881928 24.101588 1.820304 -0.149032 -1.584847 -6.091663 -5.878454 14.990398 0.000000 0.000000 0.000000
-68.556695 76.011367 342.496142 -7.408210 -0.858249 -23.260964 0.291137 -0.004079 22.989701 0.115448 -0.341984 -0.275907 -5.118075 -15.332939 2.655697 0.000000 0.000000 0.000000 0.403169 -1.752822 1.806767 12.369538 -1.422951 -2.300734 3.620389 -11.149004 1.983496 -15.633492 15.336903 4.129475 0.000000 0.000000 0.000000 0.000000 0.000000 0.000000 3.281341 -8.140749 -1.048012 -4.417495 2.341991 3.617033 -9.737677 13.898297 4.361219 13.282201 -14.624103 -1.910835 0.000000 0.000000 0.000000 0.000000 0.000000 0.000000 15.499300 4.147363 21.825300 -1.353057 3.079659 1.169395 1.407553 7.576096 -9.624783 0.000000 0.000000 0.000000 -3.341093 6.042894 24.196241 1.758254 -0.285165 -1.605360 -6.190047 -6.544345 14.785981 0.000000 0.000000 0.000000
-68.584646 75.988644 342.534768 -7.397836 -0.893888 -23.271911 0.312276 0.041556 23.001579 0.152194 -0.348049 -0.271784 -5.437304 -15.546932 2.644550 0.000000 0.000000 0.000000 0.290848 -1.877064 1.839355 12.047166 -1.423762 -2.223223 4.432728 -10.916934 1.717402 -18.015680 14.696422 5.350632 0.000000 0.000000 0.000000 0.000000 0.000000 0.000000 2.940905 -8.100700 -1.077813 -4.512992 3.220838 3.962772 -8.749006 11.061080 3.362336 14.148338 -11.625818 -2.188974 0.000000 0.000000 0.000000 0.000000 0.000000 0.000000 15.484682 4.152452 21.839981 -1.335920 3.160156 1.140750 -2.819842 1.681592 -4.865950 0.000000 0.000000 0.000000 -3.367921 6.125443 24.218664 1.746782 -0.374319 -1.612359 -6.354228 -7.351074 14.555562 0.000000 0.000000 0.000000
-68.612542 75.971667 342.565968 -7.393083 -0.979108 -23.200163 0.344196 -0.001952 22.922815 0.161435 -0.402854 -0.271490 -5.693522 -15.287265 2.616067 0.000000 0.000000 0.000000 0.198990 -1.864975 1.896950 11.775860 -1.363811 -2.179817 5.845936 -10.250259 1.239383 -13.842761 15.887965 2.575626 0.000000 0.000000 0.000000 0.000000 0.000000 0.000000 2.709024 -7.913144 -1.104858 -3.591627 2.991028 3.560457 -9.491456 12.675860 3.954862 13.601114 -13.615978 -2.005025 0.000000 0.000000 0.000000 0.000000 0.000000 0.000000 15.497755 4.118451 21.789202 -1.327458 3.457654 1.034936 -3.479372 2.132440 -4.352684 0.000000 0.000000 0.000000 -3.375424 6.219408 24.151100 1.760930 -0.380420 -1.604314 -6.472492 -7.260422 14.675024 0.000000 0.000000 0.000000
-68.648525 75.954450 342.584290 -7.411929 -1.062203 -23.033751 0.365587 -0.092560 22.746031 0.152730 -0.449023 -0.273854 -5.874011 -15.008628 2.599738 0.000000 0.000000 0.000000 0.146780 -1.831617 1.963389 11.525117 -1.278792 -2.143707 7.002728 -10.440599 1.027248 -10.438617 15.855528 0.593173 0.000000 0.000000 0.000000 0.000000 0.000000 0.000000 2.623599 -7.715497 -1.121183 -3.092045 3.147807 3.407785 -10.904087 12.328519 4.398535 13.284603 -13.984238 -1.973725 0.000000 0.000000 0.000000 0.000000 0.000000 0.000000 15.516663 4.154627 21.603210 -1.326809 3.605815 0.989716 -1.620058 6.607842 -6.736134 0.000000 0.000000 0.000000 -3.339301 6.299689 23.982747 1.783215 -0.423012 -1.593448 -6.052278 -6.457292 14.495815 0.000000 0.000000 0.000000
-68.687072 75.930911 342.605019 -7.447576 -1.150495 -22.853144 0.378347 -0.198048 22.553237 0.130288 -0.468981 -0.277144 -5.994638 -14.785632 2.595734 0.000000 0.000000 0.000000 0.087668 -1.798728 2.032485 11.338437 -1.205608 -2.110301 8.843994 -11.158631 0.860753 -9.505906 15.153214 -0.011706 0.000000 0.000000 0.000000 0.000000 0.000000 0.000000 2.651847 -7.571543 -1.133370 -2.832037 3.314762 3.339946 -10.253619 11.917668 4.095822 14.893445 -12.084328 -2.208264 0.000000 0.000000 0.000000 0.000000 0.000000 0.000000 15.556526 4.134639 21.430777 -1.266090 3.873649 0.897045 -1.329904 8.740197 -7.369443 0.000000 0.000000 0.000000 -3.263979 6.399529 23.799039 1.765374 -0.397996 -1.585465 -5.739261 -5.820526 14.398961 0.000000 0.000000 0.000000
-68.719218 75.906352 342.618917 -7.483568 -1.237359 -22.662956 0.389320 -0.306562 22.350721 0.110557 -0.477482 -0.279848 -6.104798 -14.561343 2.591413 0.000000 0.000000 0.000000 0.004399 -1.748944 2.095615 11.320854 -1.228489 -2.092289 10.397481 -10.720395 0.414503 -10.272949 16.083314 -0.195208 0.000000 0.000000 0.000000 0.000000 0.000000 0.000000 2.779695 -7.648783 -1.165379 -2.821086 3.773397 3.401141 -9.652436 12.881505 3.977412 14.749242 -14.743450 -2.193716 0.000000 0.000000 0.000000 0.000000 0.000000 0.000000 15.585250 4.104100 21.254171 -1.173075 4.073761 0.824433 -0.664117 10.309667 -8.274086 0.000000 0.000000 0.000000 -3.253447 6.478700 23.609285 1.869367 -0.344101 -1.558670 -5.431844 -5.283025 14.198669 0.000000 0.000000 0.000000
-68.750719 75.879506 342.618599 -7.511996 -1.324395 -22.505393 0.402788 -0.411194 22.181319 0.094842 -0.471174 -0.281155 -6.227103 -14.285709 2.575226 0.000000 0.000000 0.000000 -0.054070 -1.686186 2.146975 11.436903 -1.293008 -2.107613 10.695270 -9.981098 0.102578 -11.388665 14.605323 0.601058 0.000000 0.000000 0.000000 0.000000 0.000000 0.000000 2.923288 -7.636894 -1.180039 -2.979099 4.042858 3.495296 -9.080666 13.468869 3.824452 14.477335 -14.511734 -2.028242 0.000000 0.000000 0.000000 0.000000 0.000000 0.000000 15.637551 4.169241 21.061216 -1.198532 4.091183 0.831314 0.059283 11.059482 -9.065650 0.000000 0.000000 0.000000 -3.255533 6.555642 23.452915 2.036027 -0.244287 -1.514761 -5.345609 -4.740630 14.179406 0.000000 0.000000 0.000000
-68.779790 75.857560 342.623161 -7.520599 -1.376581 -22.400124 0.430349 -0.458050 22.070208 0.102491 -0.437036 -0.278320 -6.441648 -14.186258 2.547337 0.000000 0.000000 0.000000 -0.161698 -1.747960 2.191576 11.715492 -1.281357 -2.203953 10.376111 -9.861044 0.133968 -11.821291 13.201948 1.191057 0.000000 0.000000 0.000000 0.000000 0.000000 0.000000 2.894221 -7.613970 -1.190042 -3.115852 4.192502 3.601530 -8.811202 13.486620 3.699595 13.731162 -12.572990 -1.761506 0.000000 0.000000 0.000000 0.000000 0.000000 0.000000 15.733279 4.039328 21.008521 -1.191389 4.442258 0.707609 0.589843 10.431231 -9.466583 0.000000 0.000000 0.000000 -3.312855 6.620406 23.357438 2.189343 -0.231575 -1.486602 -5.268185 -5.033261 13.825958 0.000000 0.000000 0.000000
